<?xml version="1.0" encoding="utf-8"?>
<!-- Generator: Adobe Illustrator 22.0.1, SVG Export Plug-In . SVG Version: 6.00 Build 0)  -->
<svg version="1.1" id="Layer_1" xmlns="http://www.w3.org/2000/svg" xmlns:xlink="http://www.w3.org/1999/xlink" x="0px" y="0px"
	 viewBox="0 0 494 172.5" style="enable-background:new 0 0 494 172.5;" xml:space="preserve">
<style type="text/css">
	.st0{fill:#1E5631;}
	.st1{fill:#A6E000;}
	.st2{opacity:0.65;fill:#1E5631;}
	.st3{fill:#FFFFFF;}
</style>
<g>
	<path class="st0" d="M48.8,121.2L48.8,121.2c-2.4-4.1-1-9.4,3.2-11.8l43.3-25c4.1-2.4,9.4-1,11.8,3.2l0,0c2.4,4.1,1,9.4-3.2,11.8
		l-43.3,25C56.5,126.8,51.2,125.3,48.8,121.2z"/>
	<path class="st0" d="M43.8,83.4L43.8,83.4c-2.4-4.1-1-9.4,3.2-11.8l43.3-25c4.1-2.4,9.4-1,11.8,3.2l0,0c2.4,4.1,1,9.4-3.2,11.8
		l-43.3,25C51.5,89,46.2,87.5,43.8,83.4z"/>
	<path class="st1" d="M43,76.8L43,76.8c1.2-4.6,6-7.3,10.6-6.1l48.3,12.9c4.6,1.2,7.3,6,6.1,10.6l0,0c-1.2,4.6-6,7.3-10.6,6.1
		L49.1,87.4C44.5,86.1,41.7,81.4,43,76.8z"/>
	<path class="st2" d="M53.6,70.7c-2-0.5-4-0.3-5.8,0.5L47,71.6c-2.7,1.6-4.3,4.4-4.3,7.4c0,3.8,2.5,7.4,6.4,8.4l0.9,0.2
		c1.9,0.3,3.9,0,5.6-1l18.2-10.5L53.6,70.7z"/>
	<path class="st2" d="M108.3,92c0-3.8-2.5-7.4-6.4-8.4l-0.9-0.2c-1.9-0.3-3.9,0-5.6,1L77.1,94.9l20.2,5.4c2,0.5,4,0.3,5.8-0.5
		l0.8-0.4C106.7,97.8,108.2,94.9,108.3,92z"/>
	<path class="st1" d="M145.6,39.2L80.5,1.6c-3.1-1.8-6.9-1.8-10,0L5.4,39.2c-3.1,1.8-5,5.1-5,8.7v75.2c0,3.6,1.9,6.9,5,8.7
		l65.1,37.6c3.1,1.8,6.9,1.8,10,0l65.1-37.6c3.1-1.8,5-5.1,5-8.7V47.9C150.6,44.3,148.7,41,145.6,39.2z M142.9,118.6
		c0,3.6-1.9,6.9-5,8.7l-57.4,33.1c-3.1,1.8-6.9,1.8-10,0l-57.4-33.1c-3.1-1.8-5-5.1-5-8.7V52.3c0-3.6,1.9-6.9,5-8.7l57.4-33.1
		c3.1-1.8,6.9-1.8,10,0l57.4,33.1c3.1,1.8,5,5.1,5,8.7V118.6z"/>
	<path class="st3" d="M198.6,75.3c-0.9-1.1-2-2-3.5-2.7c-1.4-0.7-2.8-1-4.1-1c-0.7,0-1.4,0.1-2.1,0.2c-0.7,0.1-1.3,0.4-1.9,0.7
		c-0.6,0.3-1,0.8-1.4,1.3c-0.4,0.5-0.6,1.2-0.6,2.1c0,0.7,0.2,1.3,0.5,1.8c0.3,0.5,0.7,0.9,1.3,1.3c0.6,0.4,1.3,0.7,2.1,1
		c0.8,0.3,1.7,0.6,2.7,0.9c1.4,0.5,2.9,1,4.5,1.6c1.6,0.6,3,1.4,4.3,2.3c1.3,1,2.3,2.2,3.2,3.6c0.8,1.4,1.3,3.2,1.3,5.3
		c0,2.4-0.5,4.6-1.4,6.3c-0.9,1.8-2.1,3.3-3.6,4.4c-1.5,1.2-3.3,2-5.2,2.6c-2,0.6-4,0.8-6.1,0.8c-3,0-6-0.5-8.8-1.6
		c-2.8-1.1-5.2-2.6-7.1-4.5l6.7-6.9c1,1.3,2.4,2.4,4.1,3.2c1.7,0.9,3.4,1.3,5.1,1.3c0.8,0,1.5-0.1,2.2-0.2c0.7-0.2,1.4-0.4,1.9-0.8
		c0.5-0.4,1-0.8,1.3-1.4c0.3-0.6,0.5-1.3,0.5-2.2c0-0.8-0.2-1.5-0.6-2c-0.4-0.6-1-1.1-1.7-1.5c-0.7-0.5-1.7-0.9-2.8-1.3
		c-1.1-0.4-2.4-0.8-3.8-1.2c-1.4-0.4-2.7-1-4-1.6c-1.3-0.6-2.5-1.4-3.5-2.3c-1-0.9-1.8-2.1-2.5-3.4c-0.6-1.3-0.9-3-0.9-4.9
		c0-2.4,0.5-4.4,1.4-6.1c1-1.7,2.2-3.1,3.8-4.2c1.6-1.1,3.3-1.9,5.3-2.4c2-0.5,4-0.8,6-0.8c2.4,0,4.9,0.4,7.4,1.3
		c2.5,0.9,4.7,2.2,6.6,3.9L198.6,75.3z"/>
	<path class="st3" d="M242.2,106c-2.8,1.3-6,1.9-9.6,1.9c-3.3,0-6.3-0.5-9.1-1.6c-2.8-1.1-5.2-2.6-7.3-4.6c-2-2-3.7-4.4-4.8-7.1
		c-1.2-2.8-1.7-5.8-1.7-9.1c0-3.4,0.6-6.5,1.8-9.3c1.2-2.8,2.8-5.1,4.9-7.1c2.1-1.9,4.5-3.4,7.3-4.5c2.8-1,5.8-1.6,9.1-1.6
		c3,0,6,0.5,8.9,1.6c2.9,1.1,5.3,2.6,7.1,4.7l-7,7c-1-1.3-2.2-2.3-3.8-2.9c-1.6-0.6-3.2-1-4.8-1c-1.8,0-3.5,0.3-5,1
		c-1.5,0.7-2.8,1.6-3.9,2.7c-1.1,1.2-1.9,2.5-2.5,4.1s-0.9,3.3-0.9,5.2c0,1.9,0.3,3.7,0.9,5.3s1.4,3,2.5,4.1c1.1,1.1,2.3,2,3.8,2.7
		c1.5,0.6,3.1,1,4.9,1c2,0,3.8-0.4,5.4-1.2c1.5-0.8,2.7-1.8,3.7-3.1l7.2,6.7C247.3,103.1,245,104.8,242.2,106z"/>
	<path class="st3" d="M280.5,106.8V89h-16.6v17.8h-10.3V64.2h10.3v16.1h16.6V64.2h10.3v42.6H280.5z"/>
	<path class="st3" d="M299.5,106.8V64.2h10.4v42.6H299.5z"/>
	<path class="st3" d="M345.8,106.8l-17.2-27.9h-0.2l0.2,27.9h-10V64.2h11.7L347.5,92h0.2l-0.2-27.8h10v42.6H345.8z"/>
	<path class="st1" d="M381.3,106.8V64.2h10.4v33.6h16.5v9H381.3z"/>
	<path class="st1" d="M441.8,106.8l-3.3-8.4H422l-3.1,8.4h-11.2l17.9-42.6h10l17.7,42.6H441.8z M430.4,75.6l-5.4,14.6h10.7
		L430.4,75.6z"/>
	<path class="st1" d="M490,94.4c0,2.3-0.5,4.3-1.4,5.9c-0.9,1.6-2.1,2.9-3.7,3.8c-1.5,1-3.3,1.7-5.2,2.1c-1.9,0.4-3.9,0.6-6,0.6h-17
		V64.2h17c1.6,0,3.3,0.2,5.1,0.5c1.7,0.3,3.3,0.9,4.7,1.7c1.4,0.8,2.5,1.9,3.4,3.3c0.9,1.4,1.3,3.2,1.3,5.4c0,2.4-0.6,4.3-1.9,5.9
		c-1.3,1.5-3,2.7-5.1,3.3v0.1c1.2,0.2,2.3,0.6,3.4,1.1c1.1,0.5,2,1.2,2.8,2.1c0.8,0.8,1.4,1.8,1.9,2.9C489.8,91.7,490,93,490,94.4z
		 M478.3,76.5c0-1.4-0.6-2.5-1.7-3.2c-1.1-0.7-2.7-1-4.9-1h-5.1v8.8h5.5c1.9,0,3.4-0.4,4.5-1.2C477.8,79.2,478.3,78,478.3,76.5z
		 M479.7,93.4c0-1.8-0.7-3-2-3.7c-1.3-0.7-3.1-1-5.3-1h-5.7v9.7h5.8c0.8,0,1.6-0.1,2.5-0.2c0.9-0.1,1.6-0.4,2.3-0.8
		c0.7-0.4,1.3-0.9,1.7-1.5C479.5,95.3,479.7,94.5,479.7,93.4z"/>
</g>
</svg>
